<!-- License: CC Attribution. Made by remartwork: https://dribbble.com/remartwork -->
<svg width="24px" height="24px" viewBox="0 0 24 24" fill="none" xmlns="http://www.w3.org/2000/svg">
<path d="M12 18.2962C15.4773 18.2962 18.2963 15.4773 18.2963 12C18.2963 8.52261 15.4773 5.70367 12 5.70367C8.52264 5.70367 5.7037 8.52261 5.7037 12C5.7037 15.4773 8.52264 18.2962 12 18.2962Z" fill="#030D45"/>
<path d="M12 4.40737C12.3704 4.40737 12.7407 4.1296 12.7407 3.66663V2.74071C12.7407 2.37034 12.463 1.99997 12 1.99997C11.537 1.99997 11.2592 2.37034 11.2592 2.74071V3.66663C11.2592 4.037 11.6296 4.40737 12 4.40737Z" fill="#030D45"/>
<path d="M12 19.5925C11.6296 19.5925 11.2592 19.8703 11.2592 20.3333V21.2592C11.2592 21.6296 11.537 21.9999 12 21.9999C12.463 21.9999 12.7407 21.7222 12.7407 21.2592V20.3333C12.7407 19.9629 12.3704 19.5925 12 19.5925Z" fill="#030D45"/>
<path d="M21.2592 11.2592H20.3333C19.9629 11.2592 19.5926 11.537 19.5926 12C19.5926 12.4629 19.8703 12.7407 20.3333 12.7407H21.2592C21.6296 12.7407 22 12.4629 22 12C22 11.537 21.6296 11.2592 21.2592 11.2592Z" fill="#030D45"/>
<path d="M3.66666 11.2592H2.74074C2.37037 11.2592 2 11.537 2 12C2 12.4629 2.27778 12.7407 2.74074 12.7407H3.66666C4.03703 12.7407 4.4074 12.4629 4.4074 12C4.4074 11.537 4.03703 11.2592 3.66666 11.2592Z" fill="#030D45"/>
<path d="M18.0185 4.96302L17.3704 5.61117C17.0926 5.88894 17.0926 6.35191 17.3704 6.62968C17.4629 6.72228 17.6481 6.81487 17.8333 6.81487C18.0185 6.81487 18.2037 6.72228 18.2963 6.62968L18.9444 5.98154C19.2222 5.70376 19.2222 5.2408 18.9444 4.96302C18.6667 4.68524 18.2963 4.68524 18.0185 4.96302Z" fill="#030D45"/>
<path d="M5.61108 17.3703L4.96294 18.0185C4.68516 18.2962 4.68516 18.7592 4.96294 19.037C5.05553 19.1296 5.24071 19.2222 5.4259 19.2222C5.61108 19.2222 5.79627 19.1296 5.88886 19.037L6.53701 18.3888C6.81479 18.1111 6.81479 17.6481 6.53701 17.3703C6.35182 17.0925 5.88886 17.0925 5.61108 17.3703Z" fill="#030D45"/>
<path d="M18.3889 17.3703C18.1111 17.0925 17.6481 17.0925 17.3704 17.3703C17.0926 17.6481 17.0926 18.1111 17.3704 18.3888L18.0185 19.037C18.1111 19.1296 18.2963 19.2222 18.4815 19.2222C18.6666 19.2222 18.8518 19.1296 18.9444 19.037C19.2222 18.7592 19.2222 18.2962 18.9444 18.0185L18.3889 17.3703Z" fill="#030D45"/>
<path d="M5.61108 6.62968C5.70368 6.72228 5.88886 6.81487 6.07405 6.81487C6.25923 6.81487 6.44442 6.72228 6.6296 6.62968C6.90738 6.35191 6.90738 5.88894 6.6296 5.61117L5.98145 4.96302C5.70368 4.68524 5.24071 4.68524 4.96294 4.96302C4.68516 5.2408 4.68516 5.70376 4.96294 5.98154L5.61108 6.62968Z" fill="#030D45"/>
</svg>
