<svg width="95" height="97" viewBox="0 0 95 97" fill="none" xmlns="http://www.w3.org/2000/svg">
<g filter="url(#filter0_d_1_946)">
<rect x="1" y="1.85168" width="90.0111" height="90.0111" rx="45.0056" fill="#FFDC58" stroke="black" stroke-width="2"/>
<path fill-rule="evenodd" clip-rule="evenodd" d="M44.7978 74.4171C44.7973 74.4081 44.7899 74.4009 44.7809 74.4007C43.6103 74.3715 42.4123 74.2572 41.2333 73.9268C40.8025 73.8062 40.3623 73.6874 39.9483 73.4872C39.219 73.1403 38.5414 72.6442 38.008 72.0275C37.7388 71.7148 37.5081 71.4014 37.3017 71.0303C37.0854 70.6591 36.9592 70.2283 36.9088 69.7962C36.8578 69.4114 36.8989 69.0154 36.9934 68.6417C37.0959 68.2668 37.2787 67.9255 37.492 67.6134C38.0645 66.8276 39.035 66.357 39.9408 66.4434C40.2249 66.4614 40.1845 66.6081 40.0024 66.8307C39.8078 67.0278 39.5454 67.4294 39.2538 67.6495C38.9735 67.8397 38.8112 68.1263 38.6303 68.3433C38.463 68.5802 38.3555 68.84 38.3076 69.1043C38.2361 69.3641 38.2231 69.6433 38.2784 69.9336C38.3356 70.2227 38.4792 70.5105 38.6744 70.8506C38.9119 71.228 39.2389 71.5562 39.6163 71.8242C40.0005 72.0853 40.4295 72.288 40.8715 72.4652C41.8488 72.8525 42.948 73.0216 44.0583 73.0918C44.744 73.131 45.4403 73.1409 46.1255 73.1018C47.1656 73.0408 48.2144 72.9115 49.1997 72.6063C49.9719 72.3905 50.6868 72.061 51.3688 71.6855C51.5205 71.6041 51.6617 71.5133 51.8096 71.4257C52.3592 71.0999 52.5656 71.0408 52.8155 71.1304C52.8715 71.1503 52.9355 71.1615 52.9803 71.1869C53.1214 71.2566 53.017 71.573 52.6371 71.9336C52.0707 72.4596 51.4093 72.9258 50.6893 73.3001C50.3287 73.4841 49.9582 73.6632 49.5728 73.7999C49.1836 73.9224 48.7869 74.0256 48.3872 74.1064C47.207 74.3552 45.9998 74.4352 44.8151 74.4335C44.8059 74.4335 44.7983 74.4263 44.7978 74.4171Z" fill="#231F20"/>
<path fill-rule="evenodd" clip-rule="evenodd" d="M48.006 74.859C48.0044 74.8545 47.9996 74.8519 47.9949 74.8531C47.3603 75.0211 46.7147 75.1411 46.0672 75.2401C45.8279 75.2725 45.5935 75.3035 45.3535 75.3359C44.508 75.3968 43.6575 75.3782 42.8195 75.2607C42.4464 75.2115 42.0747 75.1456 41.7079 75.0679C41.2428 74.9504 40.7542 74.8311 40.3575 74.5252C40.2313 74.4357 40.3314 74.3206 40.5105 74.2498C40.6939 74.1758 40.9301 74.1578 41.1664 74.233C41.992 74.5426 42.8972 74.6819 43.8254 74.7633C44.3837 74.8056 44.9674 74.744 45.535 74.662C46.1629 74.5905 46.7859 74.4611 47.4032 74.307C47.7837 74.2162 48.1574 74.0912 48.5316 73.9756L49.3746 73.6766C49.65 73.5647 49.9236 73.4459 50.1934 73.3234C50.6062 73.1195 50.9898 72.8783 51.3896 72.6638L51.6476 72.5128C51.9771 72.3343 52.1076 72.3206 52.2357 72.3747C52.2649 72.3878 52.2991 72.3965 52.3215 72.4127C52.3955 72.4643 52.3028 72.6072 52.0883 72.795C51.4561 73.3583 50.6932 73.822 49.8794 74.1845C49.2846 74.4692 48.6558 74.6887 48.017 74.8648C48.0124 74.8661 48.0075 74.8636 48.006 74.859Z" fill="#231F20"/>
<path fill-rule="evenodd" clip-rule="evenodd" d="M49.2375 78.8541C49.2423 78.8579 49.2491 78.8578 49.2537 78.8538C49.4524 78.682 49.6227 78.4401 49.7792 78.1868C49.8401 78.0954 49.8625 77.9791 49.9197 77.8821C50.1149 77.5296 50.2871 77.1485 50.458 76.7544C50.5401 76.5828 50.5998 76.3994 50.6669 76.2166C50.7577 75.9847 50.8161 75.7211 51.0773 75.5315C51.1519 75.4731 51.2377 75.5899 51.316 75.7317C51.3906 75.8815 51.4814 76.0059 51.4577 76.1265C51.3446 76.5157 51.2955 77.0205 51.0151 77.4575C50.8634 77.7236 50.8012 78.0401 50.6657 78.331C50.5221 78.6518 50.3294 78.9608 50.1136 79.2542C49.9582 79.4233 49.8221 79.603 49.6331 79.7435C49.4978 79.8535 49.3526 79.9506 49.1992 80.0334L49.196 80.0351C49.0468 80.1308 48.8789 80.1793 48.7161 80.2409C48.5911 80.2987 48.4661 80.3378 48.3362 80.3739C48.2088 80.4075 48.0745 80.4684 47.9427 80.479C47.8848 80.4864 47.8277 80.4877 47.7686 80.4827C47.5504 80.4553 47.4863 80.3894 47.4702 80.17C47.4658 80.1234 47.459 80.078 47.459 80.0357C47.4596 79.9027 47.5585 79.7354 47.6853 79.6751C48.0738 79.4824 48.3629 79.419 48.6458 79.281C48.8319 79.1585 49.0451 79.0572 49.2196 78.8559C49.2241 78.8506 49.232 78.8498 49.2375 78.8541Z" fill="#231F20"/>
<path fill-rule="evenodd" clip-rule="evenodd" d="M39.4617 67.8981C39.4565 67.8907 39.4469 67.8879 39.4385 67.8913C39.2856 67.9544 39.1067 68.0247 38.9518 68.1446C38.8946 68.19 38.8604 68.2547 38.8032 68.3013C38.5943 68.4648 38.3885 68.6563 38.2368 68.8826C38.1809 68.9821 38.1461 69.0996 38.1529 69.2022C38.1492 69.3483 38.2014 69.4266 38.0932 69.5391C38.0547 69.577 37.8147 69.6896 37.5467 69.7182C37.2881 69.7617 36.9499 69.638 36.9232 69.4664C36.8529 69.1593 36.9132 68.8907 37.0071 68.6669C37.0979 68.4375 37.2384 68.2491 37.4075 68.0899C37.6139 67.9078 37.7053 67.6572 37.8856 67.4639C38.0857 67.2562 38.3071 67.0704 38.5595 66.918C38.7074 66.8192 38.8828 66.752 39.0481 66.6781C39.308 66.5696 39.5923 66.5222 39.8731 66.501C39.8764 66.5007 39.8797 66.5005 39.8831 66.5003C39.9968 66.4984 40.1131 66.471 40.2318 66.4661C40.3481 66.4717 40.4712 66.4779 40.5931 66.4978C40.649 66.5015 40.69 66.532 40.7348 66.5599C40.8902 66.683 40.894 66.7906 40.7827 67.0125C40.7572 67.0635 40.7336 67.1139 40.705 67.1611C40.6092 67.3165 40.4656 67.4272 40.3543 67.4869C40.0087 67.6821 39.9906 67.7393 39.8445 67.7735C39.7534 67.7939 39.6224 67.8339 39.4867 67.9042C39.478 67.9087 39.4673 67.9061 39.4617 67.8981Z" fill="#231F20"/>
<path fill-rule="evenodd" clip-rule="evenodd" d="M28.7842 57.4438C28.7874 57.4401 28.7874 57.4345 28.7841 57.4308C27.2968 55.7055 25.9566 53.837 24.8849 51.8128C24.6778 51.4491 24.4982 51.0711 24.3216 50.6913C24.1345 50.3164 23.966 49.934 23.8224 49.5399C22.7257 46.7982 22.2775 43.8047 22.4963 40.8784C22.5317 40.2281 22.6399 39.5822 22.7183 38.9362C22.8575 38.3009 22.9352 37.6518 23.1186 37.0326C23.4848 35.423 24.1102 33.8228 25.0795 32.4712C25.3841 32.0516 25.4114 32.1597 25.2635 32.5757C25.1093 32.9916 24.8507 33.7444 24.5075 34.5987C24.3558 34.9785 24.2215 35.3658 24.1015 35.7563C23.9803 36.1448 23.8982 36.5539 23.7826 36.948C23.6694 37.3447 23.5675 37.7432 23.4997 38.1498C23.4289 38.5551 23.3219 38.9549 23.279 39.3646C23.0192 40.9922 22.9999 42.6534 23.1584 44.304C23.3468 46.2841 23.9635 48.2915 24.8239 50.1367C25.7596 52.174 26.9582 54.0982 28.3676 55.8632C29.2237 56.958 30.1494 58.0018 31.123 58.9978C32.5908 60.5147 34.1656 61.9446 35.7708 63.2993C37.0198 64.3531 38.2905 65.3285 39.547 66.3531C39.8224 66.5806 40.0996 66.7932 40.3682 67.0351C41.3735 67.9179 41.6452 68.261 41.7447 68.5675C41.7683 68.6366 41.8081 68.7186 41.8137 68.7659C41.8298 68.9275 41.381 68.6167 40.6306 68.0061C38.3894 66.2113 35.9629 64.3524 33.6564 62.3139C31.9476 60.8001 30.2903 59.1988 28.7842 57.4569C28.7809 57.4531 28.7809 57.4476 28.7842 57.4438Z" fill="#231F20"/>
<path fill-rule="evenodd" clip-rule="evenodd" d="M25.808 31.2912C25.8182 31.2957 25.8302 31.2925 25.8368 31.2836C26.8129 29.9825 27.9615 28.8373 29.2143 27.8322C30.5012 26.8636 31.8789 26.0293 33.3343 25.361C36.255 24.0629 39.4431 23.3554 42.6535 23.4561C43.8248 23.4922 44.9936 23.6271 46.1238 23.8515C46.6933 23.964 47.2609 24.0996 47.8235 24.2656C48.3862 24.4285 48.9364 24.6666 49.4897 24.8699C51.407 25.7079 53.1129 26.9985 54.4732 28.5571C55.8397 30.1151 56.8698 31.9292 57.5761 33.8385C59.011 37.6606 59.2864 41.8099 58.7517 45.7738C58.5379 47.54 58.1624 49.2826 57.6986 50.9917C57.2503 52.7076 56.6616 54.375 56.0362 56.0119C55.2298 58.1157 54.2625 60.1586 53.1838 62.1362C52.1139 64.1188 50.8978 66.0181 49.578 67.8303C48.7505 68.9587 48.7095 68.6964 49.177 67.5947C49.4163 67.0483 49.7545 66.2749 50.1866 65.3628C50.6031 64.4415 51.1192 63.3852 51.7085 62.2593C52.7592 60.2643 53.6588 58.2009 54.5198 56.1319C55.3629 54.0542 56.0828 51.9292 56.6261 49.7632C57.7228 45.4424 58.0616 40.9016 57.0172 36.5689C56.6989 35.2814 56.2519 34.0125 55.6625 32.8064C55.0707 31.601 54.3041 30.4807 53.4095 29.4828C52.5118 28.4888 51.4754 27.6109 50.3047 26.9619C49.1359 26.3116 47.8944 25.8136 46.5714 25.5071C40.7834 24.0585 34.3315 25.5649 29.6955 29.3709C28.2786 30.5435 27.0471 31.946 26.1431 33.5394C25.9404 33.9491 25.7228 34.3532 25.5295 34.7667L25.0539 36.0523C24.8164 36.9476 24.569 37.844 24.4484 38.7642L24.362 39.2833L24.3184 39.808L24.2351 40.858L24.242 41.9118L24.2476 42.4384L24.2967 42.9637C24.3806 44.37 24.7051 45.752 25.1043 47.103C25.5121 48.4558 26.1008 49.7483 26.7412 51.0085C27.4114 52.255 28.1711 53.4517 28.9973 54.5988C31.5948 58.1599 34.7928 61.1185 38.0716 64.015C38.7965 64.6535 39.5189 65.2634 40.2407 65.9273C42.9221 68.3613 43.6507 69.43 43.7906 70.2954C43.8211 70.4931 43.854 70.7411 43.8378 70.8537C43.8217 70.9513 43.7608 70.9419 43.6563 70.8543C43.5469 70.766 43.4331 70.595 43.2006 70.375C42.7735 69.9286 42.0635 69.2335 41.0806 68.3712C38.135 65.8428 34.9656 63.2714 32.0666 60.2966C29.1733 57.3324 26.4652 53.9609 24.6852 49.9995C24.0219 48.5347 23.5251 46.9849 23.1807 45.3977C22.8295 43.808 22.7399 42.1636 22.7903 40.5354C22.8506 38.9009 23.1751 37.2957 23.5985 35.7297C24.0896 34.1444 24.836 32.648 25.7787 31.2994C25.7853 31.29 25.7975 31.2866 25.808 31.2912Z" fill="#231F20"/>
<path fill-rule="evenodd" clip-rule="evenodd" d="M41.9002 73.3858C41.8994 73.395 41.9057 73.4034 41.9149 73.4051C43.4949 73.6921 45.1744 73.6437 46.8213 73.3754C47.42 73.2703 48.0268 73.1037 48.6074 72.9763C49.5841 72.7232 50.5794 72.2582 51.4877 71.7192C52.3942 71.1715 53.2397 70.5007 53.8291 69.6856C54.3258 68.9508 54.442 68.0698 54.0013 67.348C53.7271 66.8899 53.267 66.5119 52.7709 66.2016C52.2642 65.9032 51.724 65.6315 51.1495 65.427C50.7927 65.307 50.8462 65.1901 51.2136 65.0857C51.5679 65.0049 52.2972 64.8911 53.0401 65.2225C53.6885 65.5122 54.327 65.9051 54.8443 66.5367C54.9758 66.6883 55.0815 66.862 55.173 67.0462C55.3673 67.4377 55.4909 67.8642 55.5257 68.2999C55.5313 68.5162 55.494 68.7301 55.4716 68.9446C55.3074 69.7851 54.8704 70.4522 54.3967 71.0049C53.9192 71.565 53.3572 71.9871 52.779 72.3682C52.0852 72.8184 51.3659 73.2243 50.613 73.5862C50.2363 73.7664 49.8496 73.9324 49.4486 74.0761C49.2503 74.1513 49.0351 74.206 48.83 74.27L48.2313 74.4006C46.4856 74.7891 44.6758 74.9924 42.8661 74.8401C41.7538 74.7425 40.6472 74.5094 39.5934 74.1015C38.7977 73.7839 38.0473 73.3337 37.387 72.763C36.7361 72.1824 36.204 71.4332 35.941 70.5641C35.7507 69.8908 35.7221 69.1336 35.9515 68.446C36.1878 67.7609 36.6298 67.1709 37.157 66.7183C37.3895 66.5175 37.6251 66.3334 37.8894 66.1793C38.3768 65.8914 38.743 65.8062 39.0003 65.7739C39.2627 65.7534 39.4318 65.8131 39.5835 65.938C39.6525 65.9934 39.7346 66.0425 39.7793 66.1009C39.9298 66.303 39.5798 66.5939 39.0035 66.9576C38.1449 67.4861 37.4231 68.2178 37.226 68.9987C37.1067 69.3878 37.1284 69.772 37.2198 70.178C37.3305 70.584 37.5686 70.98 37.8595 71.3493C38.782 72.4391 40.3102 73.0948 41.8854 73.3664C41.8947 73.368 41.9011 73.3764 41.9002 73.3858Z" fill="#231F20"/>
<path fill-rule="evenodd" clip-rule="evenodd" d="M40.2435 70.4457C40.2408 70.4537 40.2446 70.4625 40.2524 70.4657C41.1279 70.8305 42.1008 71.0692 43.0959 71.1861C43.4615 71.2308 43.8314 71.2246 44.2 71.2389C45.5019 71.2961 46.8329 71.1997 48.108 70.8746C48.6719 70.7291 49.2265 70.5295 49.7344 70.2684C50.3878 69.9265 50.9566 69.4851 51.4615 68.9946C51.6219 68.8423 51.7412 68.9293 51.7636 69.1991C51.7997 69.4733 51.6865 69.9501 51.3147 70.2883C49.9955 71.4366 48.3629 71.9719 46.7378 72.131C45.7642 72.2237 44.7602 72.3729 43.7586 72.3443C42.6613 72.3113 41.5578 72.1683 40.4954 71.8258C39.8432 71.6157 39.2053 71.3346 38.6166 70.9554C38.1733 70.6651 37.7593 70.3126 37.4186 69.8886C37.2594 69.6679 37.0996 69.4478 36.9809 69.201C36.8448 68.9797 36.7453 68.6272 36.7515 68.3275C36.7583 67.8407 36.9442 67.4086 37.1823 67.048C37.4242 66.6862 37.7276 66.3803 38.0776 66.1317C38.2293 66.0185 38.3872 65.9184 38.5613 65.8333C39.2252 65.5379 39.5286 65.6523 39.6778 65.9147C39.7133 65.9756 39.7549 66.0341 39.7723 66.0937C39.8189 66.2958 39.6038 66.4804 39.2843 66.6564C38.7969 66.9131 38.3381 67.3334 38.0888 67.7686C37.9638 67.9837 37.9091 68.1938 37.9215 68.3325C37.9234 68.4046 37.9452 68.4599 37.9731 68.5184C38.0067 68.5905 38.1 68.7403 38.1565 68.8497C38.5913 69.5287 39.3526 70.0711 40.2344 70.4256C40.2423 70.4288 40.2463 70.4377 40.2435 70.4457Z" fill="#231F20"/>
<path fill-rule="evenodd" clip-rule="evenodd" d="M43.8178 76.134C43.8166 76.1434 43.8227 76.1521 43.8319 76.1543C44.6474 76.3436 45.5337 76.3719 46.4175 76.2922C46.7439 76.2699 47.0609 76.1791 47.3855 76.1256C48.5337 75.9385 49.6683 75.581 50.7538 75.1054C51.23 74.8841 51.6857 74.6124 52.0986 74.3034C52.6438 73.9136 53.0777 73.4306 53.526 72.9817C53.677 72.8462 53.8119 72.9295 53.876 73.1875C53.9058 73.3149 53.9313 73.5014 53.8934 73.6954C53.8486 73.8751 53.7622 74.0734 53.6242 74.2512C52.5891 75.4051 51.3009 76.2319 49.8741 76.6677C49.0193 76.9127 48.1682 77.2689 47.2667 77.425C46.2826 77.6034 45.2692 77.6662 44.2577 77.5648C43.6373 77.4989 43.0125 77.3516 42.4274 77.1433C41.5403 76.8176 40.7022 76.3177 40.0072 75.6662C39.4644 75.1676 38.9652 74.6068 38.6065 73.9484C38.5331 73.8017 38.461 73.6575 38.3995 73.5039C38.2198 72.9177 38.3224 72.6932 38.5686 72.5117C38.6251 72.47 38.6761 72.4215 38.7302 72.3942C38.9037 72.3028 39.1673 72.4775 39.396 72.7964C39.7324 73.272 40.0252 73.7203 40.3591 74.1312C40.6941 74.5409 41.0889 74.894 41.5365 75.1931C42.1897 75.6314 42.9992 75.9526 43.8032 76.1136C43.8127 76.1155 43.8191 76.1244 43.8178 76.134Z" fill="#231F20"/>
<path fill-rule="evenodd" clip-rule="evenodd" d="M40.3784 37.9952C40.3868 37.9926 40.3922 37.9847 40.3916 37.976C40.3702 37.6692 40.3687 37.3546 40.3858 37.0328L40.4225 36.5286L40.4828 36.1649C40.5176 36.0337 40.5649 35.9069 40.6053 35.7776C40.7781 35.2579 41.1822 34.9197 41.6609 34.8208C42.1446 34.7251 42.6488 34.8911 43.0368 35.2442C43.1306 35.3356 43.2289 35.4295 43.3066 35.5333C43.393 35.6377 43.4751 35.7391 43.5105 35.8068C43.6093 35.961 43.6877 36.1127 43.7623 36.2644C43.9102 36.5665 44.024 36.8649 44.126 37.1621C44.3181 37.7614 44.4791 38.3831 44.5518 38.9999C44.8583 41.4674 44.4872 43.9554 43.4073 46.1904C43.209 46.5976 42.9771 46.9918 42.7209 47.3735C42.591 47.5656 42.4169 47.7596 42.264 47.9498C42.0818 48.1245 41.8966 48.3029 41.6883 48.4534C40.8372 49.0701 39.697 49.2324 38.7626 49.011C37.9227 48.8388 37.1779 48.4826 36.5021 48.0574C35.8251 47.6271 35.2164 47.1267 34.6656 46.5448C34.1061 45.9442 33.6715 45.2852 33.306 44.5852C32.9448 43.8845 32.6476 43.1441 32.4984 42.3427C32.3517 41.5519 32.3249 40.6635 32.7122 39.841C32.8956 39.4413 33.148 39.0832 33.5148 38.781C33.8742 38.4783 34.3765 38.3029 34.8534 38.3179C35.8207 38.3502 36.5494 38.9327 37.0989 39.4643C37.6665 40.017 38.1359 40.6436 38.5462 41.2945C39.9967 43.616 40.8074 46.2196 41.577 48.7195C42.08 50.334 42.5214 51.9921 42.8024 53.6856C42.9342 54.5336 43.0355 55.389 43.0616 56.2482C43.0877 57.108 43.0436 57.9666 42.9628 58.8171C42.8335 59.8777 42.6768 59.708 42.512 58.8158C42.4213 58.3396 42.3019 57.7216 42.1645 57.0042C42.0004 56.2638 41.8356 55.4108 41.6783 54.482C41.3973 52.8345 40.928 51.2218 40.425 49.5979C39.9351 47.9554 39.4458 46.3234 38.8515 44.7692C38.2559 43.2193 37.5316 41.6993 36.4878 40.5205C36.2304 40.2277 35.9395 39.9492 35.6665 39.7614C35.383 39.5743 35.0803 39.4587 34.8235 39.4593C34.5661 39.4524 34.3417 39.5445 34.1241 39.7546C33.9065 39.966 33.7219 40.2824 33.6286 40.5889C33.3868 41.3654 33.5733 42.362 33.9401 43.2597C34.305 44.1649 34.8509 45.0483 35.5155 45.7434C36.2105 46.4472 37.0467 47.0527 37.9326 47.4543C38.8142 47.836 39.7878 48.0176 40.5493 47.6613C40.9702 47.4786 41.3321 47.1565 41.6311 46.7524C41.9351 46.3129 42.2037 45.8342 42.4262 45.3318C42.859 44.321 43.1474 43.2305 43.2699 42.1226C43.4036 41.0148 43.3756 39.8876 43.1797 38.804C43.0691 38.2675 42.923 37.7384 42.716 37.2324C42.6134 36.9831 42.4971 36.7443 42.3659 36.5392C42.2571 36.3682 42.2018 36.3029 42.0744 36.2302C41.9239 36.145 41.7349 36.2352 41.6752 36.3912C41.6423 36.4646 41.6143 36.5479 41.6025 36.6231C41.5751 36.7474 41.5447 36.9284 41.5391 37.0869C41.5068 37.7496 41.582 38.4465 41.7113 39.1254C41.8425 39.805 42.0302 40.4789 42.2926 41.1105C42.5487 41.726 42.8975 42.3713 43.3433 42.6797C43.7119 42.9054 44.167 43.016 44.6041 42.9333C45.0467 42.8587 45.4813 42.6212 45.8624 42.3085C46.6202 41.6763 47.2276 40.7729 47.5186 39.8342C47.6622 39.3897 47.6665 38.8786 47.6025 38.3943C47.5329 37.9175 47.3588 37.4431 47.0734 37.2C46.7781 36.9551 46.4834 36.9582 46.172 37.2523C45.8586 37.5525 45.6031 38.0064 45.4104 38.4702C45.2512 38.8326 45.1586 39.2019 45.0672 39.6097C44.9646 40.0045 44.8963 40.4074 44.8304 40.8096C44.7116 41.6153 44.6401 42.4266 44.6227 43.2386C44.586 44.8625 44.7091 46.4851 44.9907 48.0847C45.1151 48.7897 45.2699 49.4723 45.4458 50.1699C45.7666 51.4655 46.0433 52.2979 46.1925 52.9004C46.3492 53.5003 46.374 53.8746 46.3286 54.2103C46.3075 54.3632 46.305 54.5566 46.2665 54.6592C46.167 54.9998 45.3973 54.0996 44.7073 52.1587C43.7082 49.2864 43.2083 46.1425 43.3451 42.9402C43.388 42.1407 43.4632 41.3368 43.5975 40.5361C43.6728 40.1376 43.7175 39.7322 43.8139 39.3337L43.9457 38.7263C44.0041 38.4969 44.0725 38.2905 44.1483 38.0797C44.3044 37.6626 44.489 37.2523 44.7601 36.8376C45.0312 36.4422 45.393 35.9554 46.1807 35.6937C46.5562 35.6085 46.974 35.6004 47.3277 35.7726C47.7013 35.8951 47.9674 36.1239 48.1844 36.3645C48.6146 36.8581 48.7756 37.376 48.8869 37.8584C49.0243 38.5864 49.0417 39.2535 48.8571 40.0238C48.6631 40.7251 48.3554 41.3219 47.9824 41.8783C47.6056 42.4304 47.1574 42.9371 46.6022 43.366C46.0501 43.7869 45.3613 44.1475 44.5469 44.2122C44.3485 44.2414 44.1384 44.2059 43.9364 44.1966C43.7343 44.1711 43.5385 44.1071 43.342 44.0561C43.158 43.9815 42.9808 43.8932 42.8036 43.8062C42.6053 43.6899 42.4337 43.5488 42.2901 43.4083C41.743 42.837 41.462 42.242 41.2115 41.6501C40.7433 40.4649 40.4633 39.2717 40.3652 38.0145C40.3646 38.0058 40.37 37.9977 40.3784 37.9952Z" fill="#231F20"/>
<path fill-rule="evenodd" clip-rule="evenodd" d="M65.0222 39.4925C65.0079 39.6013 64.8643 39.5535 64.6411 39.4217C64.5697 39.38 64.4012 39.2066 64.3956 39.1637C64.3844 39.0803 64.3751 38.9977 64.38 38.9268C64.38 38.8839 64.6623 38.4332 64.7624 38.2746C64.8556 38.1198 64.9781 37.9949 65.1111 37.883C65.3754 37.648 65.6582 37.4297 65.9573 37.2308C66.0238 37.1873 66.0984 37.1562 66.178 37.1357C66.4553 37.0704 66.694 36.9479 66.9302 36.8049C66.97 36.7819 67.016 36.7701 67.0384 36.7104C67.0676 36.6023 67.7782 36.3206 67.8864 36.3337C68.1457 36.3443 68.3931 36.3312 68.6449 36.3629C68.6803 36.3673 68.7133 36.3418 68.7537 36.3915C68.8463 36.5059 68.9134 36.4748 68.9874 36.4748C69.0888 36.4723 69.192 36.4841 69.2952 36.5177C69.3461 36.5339 69.4002 36.6004 69.4512 36.6526C69.4972 36.6992 69.4854 36.8858 69.473 36.9069C69.4357 36.9684 69.4755 37.0524 69.4842 37.1288C69.4906 37.1819 69.4762 37.2319 69.4383 37.2697C69.3987 37.3091 69.3409 37.3623 69.2799 37.4164C69.1034 37.5731 68.8677 37.7006 68.648 37.7866C68.4751 37.855 68.3005 37.937 68.2675 37.9625C68.1949 38.0118 68.0976 37.9793 68.0212 38.0224C67.9864 38.0419 67.9469 38.0649 67.9064 38.0887C67.7131 38.2025 67.5177 38.394 67.2983 38.3479C67.289 38.346 67.2795 38.3435 67.2697 38.3405C67.2392 38.3324 67.2212 38.3492 67.2013 38.3617C67.0303 38.4686 66.8345 38.5326 66.6449 38.6172C66.5498 38.6626 66.4683 38.7297 66.3807 38.7875C66.3645 38.7981 66.3402 38.7962 66.3203 38.8012C66.2955 38.8074 66.2675 38.8093 66.2482 38.8242C66.0456 38.9697 65.8062 39.076 65.6359 39.2681C65.5948 39.3079 65.3026 39.4005 65.261 39.4571C65.2367 39.4863 65.0278 39.4478 65.0222 39.4925Z" fill="#231F20"/>
<path fill-rule="evenodd" clip-rule="evenodd" d="M59.0318 25.6401C59.0168 25.752 58.8645 25.701 58.632 25.5667C58.558 25.5238 58.3827 25.346 58.3759 25.3019C58.3628 25.2148 58.3516 25.1284 58.3541 25.0538C58.3541 25.009 58.6245 24.5266 58.7153 24.3519C58.8011 24.1834 58.918 24.0466 59.0448 23.9223C59.3041 23.6705 59.5807 23.4399 59.8555 23.2185C59.9171 23.1701 59.9879 23.1328 60.0663 23.1104C60.3348 23.0308 60.5499 22.8816 60.7439 22.7069C60.7762 22.6777 60.8173 22.6596 60.8216 22.5931C60.8328 22.4837 61.3855 22.074 61.475 22.0535C61.7075 22.005 61.9164 21.9229 62.1365 21.8533C62.1688 21.8452 62.1844 21.8104 62.2453 21.844C62.3871 21.9223 62.4275 21.8633 62.4896 21.8334C62.5761 21.7911 62.665 21.7526 62.77 21.7333C62.8222 21.7234 62.9087 21.7582 62.9851 21.7793C63.0548 21.7986 63.1673 21.9733 63.1698 22.0006C63.1766 22.0784 63.2661 22.1331 63.3233 22.1977C63.3426 22.2195 63.3681 22.2481 63.3811 22.2674C63.6748 22.661 62.9444 23.2146 62.5868 23.5512C62.524 23.6103 62.4771 23.6557 62.4623 23.6736C62.43 23.7128 62.369 23.7128 62.3168 23.7234C62.2919 23.7308 61.8095 24.1872 61.7877 24.1959C61.6659 24.2562 61.5844 24.3718 61.4054 24.3438C61.37 24.3382 61.3513 24.3581 61.3308 24.3749C61.1542 24.516 60.9429 24.6031 60.7427 24.7056C60.642 24.7585 60.5605 24.8381 60.4685 24.9021C60.4517 24.9145 60.425 24.9121 60.4045 24.9183C60.3777 24.9257 60.3473 24.9276 60.3274 24.9444C60.1272 25.1185 59.863 25.2142 59.6864 25.4162C59.6429 25.4573 59.3289 25.5474 59.2854 25.6059C59.2593 25.6357 59.038 25.5941 59.0318 25.6401Z" fill="#231F20"/>
<path fill-rule="evenodd" clip-rule="evenodd" d="M50.9808 78.7691C50.9744 78.7655 50.9663 78.7673 50.9621 78.7733C50.6348 79.2392 50.2463 79.7086 49.7305 80.0745C49.5346 80.1995 49.3512 80.3493 49.1249 80.4277C48.7364 80.5887 48.2794 80.6297 47.8834 80.5669C47.4818 80.506 47.1181 80.3692 46.7923 80.1927C46.5026 80.0372 46.2229 79.8775 45.9568 79.7052C45.7883 79.5921 45.6155 79.4833 45.4594 79.3546C45.3096 79.2178 45.1834 79.0549 45.0783 78.8765C45.0143 78.7634 45.1324 78.6714 45.3227 78.6179C45.7501 78.5043 46.1546 78.7524 46.5307 78.9851C46.9484 79.2435 47.3668 79.4606 47.7833 79.6213C48.165 79.7587 48.5238 79.6536 48.8732 79.4603C49.2543 79.2539 49.5931 78.9113 49.8853 78.5054C50.0687 78.2586 50.2322 77.9838 50.3889 77.7046C50.6208 77.2757 50.8551 76.833 51.0578 76.3754C51.212 76.0192 51.3171 75.6375 51.4855 75.2738C51.5235 75.1936 51.5521 75.1097 51.5962 75.0319C51.7777 74.7522 51.9238 74.7186 52.1856 74.8262C52.2421 74.8485 52.2975 74.8641 52.3422 74.8865C52.4778 74.9511 52.6065 75.2017 52.5542 75.4186C52.4075 76.0696 52.1358 76.6776 51.8107 77.321C51.575 77.7948 51.3094 78.2783 50.9998 78.7644C50.9957 78.7708 50.9874 78.7729 50.9808 78.7691Z" fill="#231F20"/>
<path fill-rule="evenodd" clip-rule="evenodd" d="M42.5798 18.5919C42.6488 18.6895 42.5139 18.7784 42.2708 18.8599C42.1931 18.886 41.9562 18.8897 41.9195 18.863C41.8499 18.8108 41.7796 18.7585 41.728 18.7051C41.7001 18.6709 41.5098 18.1462 41.4184 17.974C41.3357 17.8055 41.2922 17.6357 41.2562 17.4654C41.1841 17.1197 41.0777 16.7809 41.0174 16.4377C41.0019 16.3619 41.0038 16.2836 41.0174 16.2034C41.0678 15.9267 41.0205 15.6625 40.9316 15.4063C40.9167 15.3634 40.9155 15.3168 40.8533 15.2851C40.8292 15.2736 40.8016 15.2287 40.774 15.1649C40.571 14.6959 40.6699 14.1683 40.7346 13.6612C40.7389 13.6252 40.7122 13.5941 40.7657 13.5493C40.89 13.4443 40.8458 13.379 40.8546 13.3C40.8565 13.2724 40.8582 13.2447 40.8604 13.2169C40.8734 13.0499 40.9609 12.9071 41.061 12.7728C41.1045 12.7144 41.2307 12.7082 41.2543 12.7187C41.3121 12.7523 41.3712 12.6982 41.4246 12.6802C41.4433 12.674 41.4675 12.6659 41.485 12.664C41.5138 12.6586 41.6642 12.7551 41.8163 12.8675C42.0685 13.054 42.2306 13.3386 42.3566 13.6258C42.4536 13.8465 42.5592 14.0778 42.5866 14.1238C42.6445 14.2179 42.6068 14.3411 42.6421 14.4458C42.7134 14.6575 42.8314 15.0082 42.8309 15.0302C42.8378 15.1807 42.913 15.3218 42.8054 15.4915C42.7849 15.5251 42.7961 15.5537 42.803 15.5835C42.8577 15.8359 42.839 16.1008 42.8347 16.3606C42.8322 16.4937 42.862 16.623 42.8626 16.7554C42.8633 16.7791 42.8452 16.8045 42.8378 16.8294C42.8284 16.8605 42.8129 16.8922 42.8148 16.922C42.8365 17.2323 42.7768 17.5481 42.8235 17.854C42.8334 17.9248 42.7016 18.2711 42.7184 18.3507C42.7265 18.3967 42.5505 18.5534 42.5798 18.5919Z" fill="#231F20"/>
<path fill-rule="evenodd" clip-rule="evenodd" d="M22.4505 19.6829C22.3181 19.6655 22.3858 19.4883 22.5798 19.2291C22.6414 19.1464 22.8782 18.9499 22.9292 18.9412C23.028 18.9232 23.1244 18.9064 23.2027 18.9045C23.2487 18.9083 23.7007 19.1482 23.8729 19.1992C24.0333 19.2577 24.1639 19.3459 24.2895 19.4423L25.0883 20C25.148 20.0416 25.1978 20.097 25.2425 20.1629C25.3917 20.3929 25.6056 20.539 25.8412 20.6521C25.8804 20.6708 25.9133 20.7025 25.9768 20.6795C26.0768 20.6434 26.6886 21.0071 26.7508 21.0904C26.8987 21.2956 27.0697 21.4684 27.2326 21.6568C27.2562 21.6835 27.2979 21.6848 27.2929 21.7544C27.2811 21.9154 27.3557 21.9316 27.4135 21.9776C27.4931 22.0422 27.5695 22.1144 27.6317 22.2082C27.6628 22.2542 27.6628 22.3506 27.6709 22.4327C27.679 22.5073 27.5459 22.6813 27.5204 22.6938C27.4458 22.7292 27.4247 22.8362 27.3818 22.9163C27.3675 22.9431 27.3482 22.9779 27.3339 22.9984C27.301 23.0419 26.6159 23.0749 26.5624 23.0419C26.5562 23.0388 26.3566 22.958 26.144 22.8703C25.9314 22.7852 25.7076 22.6969 25.6578 22.6838C25.6062 22.6708 25.5795 22.6154 25.5459 22.5713C25.5316 22.5551 24.8701 22.3002 24.8471 22.2797C24.7315 22.1908 24.5761 22.1573 24.5232 21.9707C24.5133 21.9341 24.4841 21.9235 24.4586 21.9104C24.2335 21.7898 24.0501 21.6058 23.8617 21.4305C23.7641 21.3422 23.6485 21.2763 23.5434 21.1967C23.5248 21.1824 23.5179 21.1526 23.5043 21.1315C23.4869 21.1053 23.4757 21.0699 23.452 21.0525C23.2034 20.8616 23.015 20.6018 22.7533 20.4196C22.6892 20.3792 22.5562 20.0217 22.4872 19.9751C22.4455 19.9484 22.5021 19.6897 22.4505 19.6829Z" fill="#231F20"/>
</g>
<defs>
<filter id="filter0_d_1_946" x="0" y="0.851685" width="94.0112" height="96.0111" filterUnits="userSpaceOnUse" color-interpolation-filters="sRGB">
<feFlood flood-opacity="0" result="BackgroundImageFix"/>
<feColorMatrix in="SourceAlpha" type="matrix" values="0 0 0 0 0 0 0 0 0 0 0 0 0 0 0 0 0 0 127 0" result="hardAlpha"/>
<feOffset dx="2" dy="4"/>
<feComposite in2="hardAlpha" operator="out"/>
<feColorMatrix type="matrix" values="0 0 0 0 0 0 0 0 0 0 0 0 0 0 0 0 0 0 1 0"/>
<feBlend mode="normal" in2="BackgroundImageFix" result="effect1_dropShadow_1_946"/>
<feBlend mode="normal" in="SourceGraphic" in2="effect1_dropShadow_1_946" result="shape"/>
</filter>
</defs>
</svg>
