<svg width="67" height="68" viewBox="0 0 67 68" fill="none" xmlns="http://www.w3.org/2000/svg">
<g clip-path="url(#clip0_1_1162)">
<path fill-rule="evenodd" clip-rule="evenodd" d="M15.4387 37.7095C15.1847 37.4601 14.9288 37.2107 14.671 36.9632C12.0431 34.4442 9.43568 31.9224 6.98925 29.221C6.39648 28.5668 5.28354 27.2975 4.16595 26.6443C3.3666 26.1772 2.5393 25.9818 1.78276 26.0785C1.30073 26.14 0.596332 26.3828 0.242721 27.3069C0.183165 27.4623 0.112459 27.7293 0.0845424 28.0699C0.0398757 28.6208 0.0835905 29.6091 0.0975488 29.7458C0.292965 31.7391 0.488375 33.6449 0.846639 35.6167C1.17606 37.4313 1.40124 39.2599 1.75578 41.0717C2.2862 43.7824 2.96925 46.3916 3.96494 48.973C4.33437 49.9314 5.41289 50.4088 6.37136 50.0394C7.3289 49.67 7.8072 48.5924 7.43777 47.6339C6.52117 45.2564 5.89678 42.8537 5.40917 40.357C5.05742 38.5619 4.835 36.7492 4.50837 34.9514C4.29621 33.7817 4.14544 32.6362 4.01703 31.4804L4.23013 31.7195C6.73611 34.4861 9.40404 37.0703 12.0952 39.6498C13.1021 40.6157 14.0745 41.6095 15.0972 42.5596C15.18 42.6806 15.5624 43.2352 15.7504 43.425C16.0631 43.7414 16.4009 43.9182 16.6949 44.0057C17.4422 44.229 18.2006 44.1462 18.8631 43.3087C19.3591 42.6815 19.6448 41.709 19.6234 40.5477C19.5945 38.9518 18.9888 36.8479 18.8604 35.8782C18.0471 29.7431 16.7313 23.6321 16.3814 17.4439C16.3237 16.4185 15.4443 15.633 14.4188 15.6907C13.3933 15.7494 12.607 16.6287 12.6656 17.6542C13.0202 23.9354 14.3444 30.1395 15.1698 36.3677C15.2144 36.699 15.3205 37.1707 15.4387 37.7095Z" fill="black"/>
<path fill-rule="evenodd" clip-rule="evenodd" d="M31.7006 12.278C29.5901 12.8372 27.4759 13.3248 25.7804 14.7746C24.0068 16.2924 23.1051 18.4969 22.784 20.9535C22.3746 24.0876 22.9236 27.6433 23.2642 30.1772C23.441 31.4893 23.5164 33.3178 23.8988 34.9379C24.2283 36.331 24.7894 37.5788 25.6445 38.4526C26.9883 39.8252 29.0504 39.9638 31.1655 39.1077C33.6092 38.1185 36.0426 35.8359 36.7042 34.5052C37.162 33.5858 36.787 32.4673 35.8667 32.0104C34.9473 31.5526 33.8297 31.9276 33.3719 32.847C32.9522 33.691 31.3191 35.0301 29.7688 35.6582C29.4226 35.7978 29.0802 35.902 28.7563 35.928C28.5879 35.942 28.4195 35.9662 28.305 35.8499C27.7439 35.2757 27.5466 34.3424 27.3838 33.3997C27.1558 32.0858 27.0925 30.7132 26.9538 29.6803C26.6486 27.4144 26.1089 24.2384 26.4746 21.4356C26.671 19.9327 27.1148 18.5323 28.2008 17.6036C29.4608 16.526 31.0836 16.2924 32.6535 15.8764C33.6464 15.614 34.2392 14.5941 33.9758 13.6012C33.7134 12.6083 32.6935 12.0155 31.7006 12.278Z" fill="black"/>
<path fill-rule="evenodd" clip-rule="evenodd" d="M31.5579 22.0849C29.9229 22.9754 28.1754 23.891 26.4231 24.5201C25.4563 24.8672 24.9528 25.9337 25.299 26.9005C25.6461 27.8673 26.7125 28.3707 27.6793 28.0237C29.6093 27.3313 31.5384 26.3347 33.338 25.3548C34.2398 24.8635 34.5738 23.7319 34.0825 22.8302C33.5911 21.9276 32.4606 21.5945 31.5579 22.0849Z" fill="black"/>
<path fill-rule="evenodd" clip-rule="evenodd" d="M54.0349 23.0728C52.6763 21.4294 51.2405 19.8122 49.7237 18.3344C49.5999 18.2144 48.0701 16.9544 47.1609 16.4835C46.5477 16.1662 46.0042 16.1085 45.686 16.1392C44.7601 16.2286 44.1952 16.7302 43.9635 17.5881C43.7421 18.4107 43.6621 19.2678 43.6621 20.1425C42.2858 17.5621 41.0267 14.9081 40.2618 12.1137C40.1985 11.8829 40.1473 11.7749 40.139 11.7554C39.8812 11.1859 39.5155 10.9923 39.3852 10.916C38.745 10.5401 38.168 10.6034 37.6814 10.8221C37.6218 10.8481 36.3097 11.4306 36.6233 12.9186C36.6484 13.0386 36.8625 13.8938 36.9248 14.2279C36.9797 14.5182 37.0988 14.7797 37.2654 15.0012C38.5477 18.6843 40.5093 22.1637 42.3919 25.5611C42.7985 26.2953 43.1158 27.0518 43.3252 27.8642C43.3866 28.1015 43.4117 28.6384 43.4657 28.9018C43.5578 29.3475 43.7402 29.6462 43.8565 29.7988C44.4614 30.5935 45.2068 30.6745 45.8944 30.4707C46.1885 30.3842 46.7775 30.186 47.1358 29.3326C47.9416 27.4157 47.8505 25.2987 47.6169 23.1658C47.548 22.5349 47.4625 21.904 47.4103 21.2805C49.0658 22.9258 50.6151 24.7403 52.0715 26.554C52.2315 26.7531 53.8526 28.5659 54.2834 28.8357C55.361 29.5132 56.1976 29.0041 56.5558 28.7008C57.1021 28.2374 57.532 27.4418 57.7069 26.4284C57.9321 25.1173 57.7544 23.3129 57.7367 22.587C57.6185 17.7016 57.4417 12.5948 56.3446 7.82473C56.1147 6.82346 55.1153 6.19809 54.114 6.42794C53.1128 6.65778 52.4875 7.65816 52.7173 8.65851C53.7586 13.1885 53.9028 18.0394 54.0154 22.6773C54.0182 22.7843 54.0256 22.9183 54.0349 23.0728Z" fill="black"/>
<path fill-rule="evenodd" clip-rule="evenodd" d="M61.4716 6.58714C62.1462 9.84874 62.8218 13.0805 63.2629 16.4343C63.3969 17.4532 64.332 18.1716 65.351 18.0376C66.369 17.9036 67.0875 16.9684 66.9535 15.9494C66.3319 11.2194 65.2561 6.72858 64.3554 2.06278C64.0083 0.259362 62.2942 0.511568 62.189 0.530179C61.9573 0.571123 60.6946 0.840051 60.6527 2.3187C60.6499 2.40897 60.7104 3.04728 60.7206 3.29481C60.7429 3.86152 60.7317 4.41522 60.7029 4.98286C60.6694 5.63704 60.9774 6.22981 61.4716 6.58714Z" fill="black"/>
<path fill-rule="evenodd" clip-rule="evenodd" d="M66.2883 25.8207C66.4772 25.2456 66.3813 24.5887 65.9756 24.0797C65.3344 23.2766 64.1628 23.1454 63.3598 23.7866C62.6181 24.3784 62.4795 25.0996 62.579 25.9817C62.6944 27.0026 63.6175 27.7377 64.6384 27.6213C65.5717 27.5162 66.2659 26.7345 66.2883 25.8207Z" fill="black"/>
<path fill-rule="evenodd" clip-rule="evenodd" d="M31.1552 61.7216C30.9653 61.3196 30.8127 61.0023 30.7765 60.9343C29.0475 57.7007 27.1715 54.5098 25.1289 51.4641C24.5566 50.6107 23.3999 50.3828 22.5466 50.9551C21.6933 51.5273 21.4653 52.6841 22.0376 53.5374C24.0113 56.4798 25.8231 59.5646 27.4944 62.6894C27.6218 62.9276 28.4715 65.0446 29.0782 65.9277C29.6281 66.7271 30.3186 67.0127 30.7141 67.0714C31.3422 67.1644 32.3249 66.9392 33.1224 65.8747C34.1637 64.4853 35.5139 60.7734 35.7363 60.1574C36.1439 59.0239 36.4891 57.8347 36.8092 56.678C37.4159 54.4837 37.7649 52.2504 38.0766 50.0003C38.2181 48.9823 37.5062 48.0424 36.4882 47.901C35.4711 47.7605 34.5303 48.4724 34.3898 49.4895C34.1004 51.5767 33.7849 53.65 33.2219 55.6851C32.926 56.7524 32.6096 57.8514 32.2337 58.8974C32.1202 59.211 31.6791 60.5063 31.1552 61.7216Z" fill="black"/>
</g>
<defs>
<clipPath id="clip0_1_1162">
<rect width="67" height="67" fill="white" transform="translate(0 0.5)"/>
</clipPath>
</defs>
</svg>
