<svg width="73" height="69" viewBox="0 0 73 69" fill="none" xmlns="http://www.w3.org/2000/svg">
<path d="M38.6181 8.36637C36.8542 11.1818 39.3811 19.2499 42.9486 22.2228C45.6852 24.4461 47.71 23.4265 48.2431 19.5231C48.8556 15.409 45.841 9.56867 42.4096 8.10076C39.795 6.95345 39.4802 7.01133 38.6181 8.36637Z" fill="black"/>
<path d="M15.0585 10.239C13.2947 13.0544 15.8215 21.1225 19.389 24.0953C22.1256 26.3187 24.1504 25.2991 24.6835 21.3957C25.296 17.2816 22.2814 11.4413 18.8501 9.97335C16.2354 8.82604 15.9206 8.88392 15.0585 10.239Z" fill="black"/>
<path d="M5.08328 33.1238C5.80646 37.5808 14.0815 45.7884 21.4377 49.2808C23.7064 50.4133 27.6199 51.2237 31.0796 51.3722C36.5131 51.5697 37.2844 51.3886 44.3031 48.1562C51.0382 45.0543 52.0789 44.3137 55.3089 40.5618C59.4237 35.7056 63.354 25.2734 62.1062 22.3644C61.0144 19.819 59.4292 21.0716 56.2531 27.3244C52.7367 34.1694 50.7772 36.7266 46.6851 39.6563C42.7745 42.4153 35.4609 44.5643 30.8612 44.3312C25.3965 44.061 15.1222 38.516 9.53555 32.8151C6.69117 29.9447 4.60683 30.0337 5.08328 33.1238Z" fill="black"/>
</svg>
