<svg width="151" height="136" viewBox="0 0 151 136" fill="none" xmlns="http://www.w3.org/2000/svg">
<g filter="url(#filter0_d_1_1181)">
<path d="M64.5679 22.59V45.1802L52.7817 39.2871C46.2993 36.1441 40.2098 33.394 39.0311 33.394C34.5131 33.394 37.6561 39.4836 46.1029 46.9482C52.1924 52.2519 54.3532 55.1985 52.5853 55.7878C51.0138 56.3771 39.424 59.5201 26.4592 62.6631C2.29751 68.5562 -2.61341 71.1099 1.11889 74.8421C2.49394 76.2172 11.9229 75.6279 32.9416 72.4849C49.4423 70.1277 63.3893 68.7526 63.9786 69.3419C64.5679 70.1277 61.2285 77.003 56.7104 84.8604C51.996 92.7179 48.0672 99.7896 47.6744 100.379C47.2815 101.165 48.2637 102.736 49.6387 103.915C51.996 105.879 53.9603 104.897 60.2463 99.3967C64.5679 95.468 68.8895 92.325 69.8717 92.325C70.8539 92.325 72.8182 98.2181 74.3897 105.486C77.7292 122.38 80.0864 127.684 84.408 127.684C89.7118 127.684 90.694 121.594 89.1225 99.0039C88.3367 87.6105 88.3367 78.5744 89.3189 78.5744C90.3011 78.5744 98.1586 81.7174 106.802 85.4497C123.892 92.9143 129.392 93.8965 129.392 89.5749C129.392 85.6462 126.249 82.896 111.123 72.4849C103.855 67.7704 97.9621 63.2524 97.9621 62.6631C97.9621 62.0738 107.98 58.7343 120.159 55.1985C141.964 48.9125 151 44.7873 151 41.2515C151 38.3049 138.624 38.8942 118.981 42.4301C109.552 44.198 101.105 45.1802 100.516 44.3945C99.9265 43.8052 101.302 38.6978 103.659 33.1976C112.498 11.786 106.998 9.82163 93.2476 29.6617C88.1403 37.3228 83.0329 42.823 82.2472 41.8408C81.4614 41.0551 79.3007 33.1976 77.3363 24.5544C73.4075 6.08934 70.8539 -0.000198364 67.1216 -0.000198364C65.1572 -0.000198364 64.5679 5.10715 64.5679 22.59Z" fill="#F3ABCB"/>
<path d="M65.5679 45.1802V46.7983L64.1207 46.0746L52.3454 40.1869C52.3436 40.186 52.3417 40.1851 52.3399 40.1842C49.1059 38.6163 45.9788 37.1507 43.5181 36.0787C42.2856 35.5418 41.2321 35.1088 40.4214 34.8118C40.0152 34.6631 39.6827 34.5531 39.4261 34.4817C39.2981 34.446 39.1981 34.4225 39.1233 34.4084C39.043 34.3932 39.0179 34.394 39.0311 34.394C38.5659 34.394 38.3047 34.4744 38.1725 34.5469C38.0684 34.6041 38.0265 34.6625 37.9991 34.7526C37.9128 35.037 37.9719 35.7172 38.5924 36.9105C39.7837 39.2015 42.5705 42.4916 46.7623 46.1964C49.811 48.8519 51.9463 50.9753 53.097 52.5445C53.6529 53.3025 54.0884 54.0732 54.1685 54.7934C54.2122 55.1867 54.1555 55.6219 53.8961 56.011C53.6449 56.3878 53.2795 56.6071 52.9203 56.7301C52.05 57.0527 48.7101 57.9968 44.0515 59.2343C39.3305 60.4883 33.1854 62.0614 26.6962 63.6346C14.5887 66.5876 7.43284 68.6765 3.76665 70.462C2.85997 70.9035 2.20804 71.3075 1.76046 71.6751C1.30995 72.0451 1.11885 72.3353 1.04521 72.5367C0.942873 72.8166 0.962452 73.2715 1.82599 74.135C1.82411 74.1332 1.82314 74.1322 1.82323 74.1321C1.82419 74.1308 1.926 74.2092 2.26516 74.2953C2.61232 74.3835 3.10775 74.4554 3.77873 74.4979C5.11808 74.5827 7.03052 74.5433 9.59263 74.3603C14.7093 73.9949 22.2902 73.0665 32.7937 71.4959L32.8002 71.495C41.0609 70.3149 48.687 69.3799 54.3269 68.8135C57.1449 68.5304 59.4781 68.3383 61.1506 68.2542C61.9839 68.2123 62.6727 68.1961 63.1828 68.2115C63.4347 68.2192 63.6704 68.2351 63.8691 68.2663C63.9675 68.2817 64.0831 68.3048 64.1985 68.343C64.2895 68.3731 64.5004 68.4495 64.6857 68.6348L64.736 68.6851L64.7786 68.7419C64.9804 69.011 65.0281 69.3053 65.0412 69.4882C65.0554 69.6869 65.037 69.8867 65.0087 70.0672C64.9518 70.4296 64.8308 70.8565 64.6729 71.3174C64.3541 72.2477 63.8322 73.4656 63.1635 74.8774C61.8223 77.7089 59.844 81.4169 57.5773 85.3589L57.5727 85.3669L57.5679 85.3749C55.2154 89.2958 53.0582 93.0218 51.4391 95.843C50.9308 96.7286 50.4714 97.5326 50.0741 98.2279C49.3356 99.5201 48.8118 100.437 48.5877 100.804C48.589 100.823 48.5924 100.852 48.6006 100.891C48.6304 101.032 48.7088 101.238 48.8598 101.5C49.1599 102.02 49.6671 102.621 50.2841 103.151C50.7902 103.572 51.1911 103.764 51.5646 103.824C51.935 103.883 52.4 103.831 53.0684 103.539C54.4711 102.925 56.4146 101.42 59.5807 98.6503C61.761 96.6687 63.9462 94.8802 65.7204 93.5808C66.6066 92.9318 67.405 92.3939 68.0575 92.0135C68.3827 91.824 68.6889 91.6634 68.9627 91.5472C69.2054 91.4442 69.5365 91.325 69.8717 91.325C70.468 91.325 70.8657 91.7359 71.0416 91.9404C71.2649 92.2002 71.4697 92.536 71.658 92.8975C72.0393 93.6299 72.4451 94.6491 72.8564 95.858C73.6828 98.2871 74.5762 101.617 75.3671 105.275L75.369 105.284L75.3708 105.292C77.042 113.747 78.4485 119.19 79.9425 122.51C80.687 124.164 81.4176 125.208 82.1429 125.834C82.8376 126.435 83.5616 126.684 84.408 126.684C85.5191 126.684 86.2722 126.378 86.8526 125.718C87.4814 125.004 88.0116 123.759 88.3566 121.653C89.0467 117.442 88.9121 110.39 88.1249 99.0732L88.1248 99.0727C87.731 93.3622 87.533 88.2276 87.5577 84.51C87.5701 82.6571 87.6378 81.1257 87.7708 80.0425C87.8362 79.5101 87.9236 79.0298 88.0504 78.6603C88.1121 78.4807 88.2054 78.259 88.3575 78.0639C88.5106 77.8675 88.8276 77.5744 89.3189 77.5744C89.6042 77.5744 89.9673 77.6679 90.2728 77.7554C90.6249 77.8562 91.0665 78.0005 91.5795 78.1799C92.6077 78.5393 93.9662 79.0544 95.5551 79.6825C98.7353 80.9398 102.871 82.6629 107.198 84.5317L107.202 84.5333C115.763 88.2726 121.306 90.334 124.685 90.9483C126.402 91.2605 127.339 91.1531 127.811 90.9123C128.142 90.7438 128.392 90.432 128.392 89.5749C128.392 88.7467 128.231 88.0049 127.787 87.1903C127.329 86.3511 126.55 85.3985 125.25 84.1943C122.639 81.7747 118.141 78.5292 110.568 73.3163C106.921 70.9508 103.616 68.6324 101.216 66.8261C100.016 65.9234 99.0314 65.1399 98.3397 64.5375C97.9965 64.2385 97.7071 63.9683 97.4962 63.7408C97.3925 63.6289 97.287 63.5053 97.2011 63.3779C97.158 63.3141 97.1066 63.23 97.0632 63.1308C97.0241 63.0414 96.9621 62.8749 96.9621 62.6631C96.9621 62.3031 97.1421 62.0588 97.2161 61.968C97.3065 61.8572 97.4051 61.7758 97.4747 61.7232C97.6177 61.6151 97.7893 61.517 97.9555 61.4307C98.2977 61.253 98.7731 61.0459 99.3468 60.8167C100.503 60.355 102.156 59.7649 104.176 59.0876C108.219 57.7315 113.783 56.0085 119.881 54.2381L119.882 54.2376C130.778 51.0965 138.429 48.51 143.344 46.2829C145.806 45.167 147.523 44.1666 148.61 43.2678C149.715 42.3543 149.998 41.6907 150 41.2571C149.99 41.2428 149.956 41.1986 149.863 41.1352C149.646 40.9858 149.236 40.8152 148.557 40.6746C147.212 40.396 145.149 40.2995 142.397 40.4091C136.916 40.6273 128.965 41.649 119.161 43.4137C114.432 44.3004 109.938 44.9922 106.542 45.364C104.848 45.5495 103.404 45.658 102.333 45.6676C101.801 45.6724 101.327 45.6534 100.946 45.5976C100.758 45.5698 100.557 45.5283 100.371 45.4598C100.22 45.4042 99.9646 45.2908 99.7615 45.0517C99.5993 44.8704 99.5166 44.6712 99.4717 44.5242C99.4206 44.3569 99.3976 44.1885 99.3873 44.0382C99.3668 43.7388 99.3896 43.3968 99.4349 43.0429C99.5264 42.3278 99.7305 41.4106 100.019 40.3706C100.597 38.2836 101.545 35.5914 102.737 32.8097C104.935 27.4846 106.217 23.4266 106.71 20.6472C106.959 19.2476 106.994 18.2474 106.888 17.5991C106.836 17.2794 106.757 17.0962 106.696 17.001C106.645 16.9216 106.612 16.9103 106.598 16.9056L106.598 16.9054C106.526 16.8806 106.187 16.843 105.41 17.2851C104.679 17.7015 103.746 18.4388 102.619 19.5464C100.373 21.7536 97.4942 25.2907 94.0748 30.2238C91.5023 34.0819 88.9201 37.4115 86.866 39.666C85.8448 40.7868 84.9221 41.6775 84.1757 42.2322C83.8129 42.5018 83.4227 42.7449 83.0385 42.8668C82.6854 42.9789 81.9912 43.0759 81.5006 42.5068C81.2765 42.264 81.1058 41.9185 80.9792 41.6373C80.8244 41.2933 80.6571 40.858 80.4808 40.3541C80.1271 39.3436 79.7155 37.995 79.2711 36.4149C78.3812 33.2511 77.3459 29.1087 76.3611 24.776L76.3611 24.776L76.3582 24.7625C74.3931 15.5267 72.7883 9.47205 71.2322 5.73732C70.4534 3.86827 69.7189 2.66159 69.0186 1.93261C68.3467 1.23322 67.736 0.999802 67.1216 0.999802C67.1208 0.999802 67.1204 0.999481 67.1199 0.999168C67.1184 0.997993 67.1171 0.996994 67.0962 1.01478C67.0474 1.05628 66.9398 1.17733 66.8089 1.47436C66.5417 2.08059 66.2961 3.13875 66.1017 4.85159C65.7162 8.24891 65.5679 13.8411 65.5679 22.59V45.1802Z" stroke="black" stroke-width="2"/>
</g>
<defs>
<filter id="filter0_d_1_1181" x="0" y="-0.000244141" width="151" height="135.448" filterUnits="userSpaceOnUse" color-interpolation-filters="sRGB">
<feFlood flood-opacity="0" result="BackgroundImageFix"/>
<feColorMatrix in="SourceAlpha" type="matrix" values="0 0 0 0 0 0 0 0 0 0 0 0 0 0 0 0 0 0 127 0" result="hardAlpha"/>
<feOffset dy="7.76457"/>
<feComposite in2="hardAlpha" operator="out"/>
<feColorMatrix type="matrix" values="0 0 0 0 0.745098 0 0 0 0 0.74902 0 0 0 0 0.705882 0 0 0 1 0"/>
<feBlend mode="normal" in2="BackgroundImageFix" result="effect1_dropShadow_1_1181"/>
<feBlend mode="normal" in="SourceGraphic" in2="effect1_dropShadow_1_1181" result="shape"/>
</filter>
</defs>
</svg>
