<svg width="205" height="220" viewBox="0 0 205 220" fill="none" xmlns="http://www.w3.org/2000/svg">
<g filter="url(#filter0_d_1_922)">
<rect width="143.482" height="149.353" transform="translate(122.359 0.121704) rotate(55.0113)" fill="#F3ABCB"/>
<g filter="url(#filter1_d_1_922)">
<path d="M155.926 51.0766C153.862 51.7058 153.901 51.6784 136.474 67.1379C129.414 73.3607 123.44 78.4735 123.241 78.4383C123.042 78.4031 122.565 74.3103 122.241 69.3535C121.577 59.9169 120.643 54.3386 119.533 52.6694C118.219 50.7929 116.601 50.6443 114.451 52.1492C112.184 53.7361 110.761 55.7805 104.028 67.1321C98.5083 76.4706 97.0814 78.343 95.725 78.0693C93.9698 77.7252 90.9717 75.1059 76.2509 61.0636C68.2416 53.4483 60.889 46.7711 59.8844 46.2511C56.6126 44.4059 54.8573 46.974 56.1196 51.8566C56.4948 53.2248 59.0549 59.8782 61.8026 66.6332C69.4399 85.2839 73.2857 97.2694 71.9175 98.227C71.6047 98.4459 68.9661 98.2542 65.9913 97.8319C55.3001 96.2872 48.2833 95.6652 47.0363 96.1303C46.0785 96.5095 45.7697 96.9004 45.6875 97.948C45.5936 99.0621 45.8125 99.3748 47.3096 100.598C48.2791 101.318 53.99 104.484 59.9903 107.565C65.9906 110.646 71.299 113.57 71.7993 114.035C73.312 115.365 73.0149 116.271 70.6224 118.179C69.4262 119.133 63.2339 123.933 56.8462 128.87C41.9128 140.486 39.8174 142.652 41.377 144.88C43.1829 147.46 48.5775 146.597 70.0348 140.14C79.1861 137.404 87.0787 135.2 87.5439 135.282C88.2475 135.372 88.2866 135.927 87.7665 138.097C86.398 143.714 83.8836 158.346 84.0477 159.745C84.4658 163.005 86.4907 163.568 89.1099 161.153C89.8996 160.367 93.9966 155.403 98.2696 150.024C102.503 144.673 106.057 140.263 106.19 140.287C106.323 140.31 107.405 143.105 108.566 146.428C111.408 154.399 116.731 166.748 119.194 170.849C120.957 173.867 121.242 174.191 122.45 174.336C125.237 174.657 125.577 173.312 128.494 152.516C129.554 144.96 130.696 138.686 130.985 138.6C131.275 138.514 134.253 139.69 137.545 141.231C145.812 145.054 151.187 146.825 153.415 146.431C155.182 146.126 155.26 146.071 155.495 144.742C155.863 142.854 152.951 137.612 148.272 131.509C146.267 128.894 144.625 126.549 144.699 126.322C144.707 126.083 148.342 126.451 152.701 127.186C165.362 129.216 176.839 130.385 180.416 129.92C183.215 129.592 184.353 127.806 183.012 125.89C182.438 125.069 173.189 120.01 159.996 113.227C154.719 110.514 150.404 108.176 150.372 107.965C150.341 107.754 154.418 104.842 159.387 101.539C169.688 94.6207 171.267 93.0493 170.204 91.1142C169.43 89.6757 168.809 89.703 156.941 91.1369C146.71 92.4146 142.919 92.7389 142.618 92.3088C142.508 92.1525 143.134 90.5498 144.017 88.65C144.889 86.8167 146.859 82.6419 148.427 79.3896C153.279 69.1794 157.826 58.3671 158.502 55.5057C159.038 53.4417 159.003 52.4762 158.428 51.6553C157.772 50.717 157.373 50.6466 155.926 51.0766ZM154.726 58.2653C152.736 63.3275 146.508 77.0636 142.95 84.2131C139.948 90.1587 139.033 93.0123 139.826 94.1459C140.757 95.4751 145.377 95.5027 154.892 94.2015C160.185 93.5256 165.017 92.9395 165.626 92.9786C166.58 93.0099 166.596 93.1155 165.4 94.0692C164.684 94.6282 160.138 97.8686 155.318 101.3L146.522 107.457L147.143 108.594C147.612 109.431 152.119 112.042 163.44 117.981C172.067 122.485 179.263 126.359 179.427 126.594C179.592 126.828 179.611 127.106 179.455 127.215C178.712 127.735 160.848 125.678 151.638 124.086C146.056 123.101 141.302 122.467 140.99 122.686C139.66 123.617 140.118 124.52 146.685 133.902C150.269 139.023 153.095 143.393 152.982 143.647C152.544 144.769 146.633 142.732 137.478 138.307C131.99 135.625 130.063 135.285 128.722 136.864C128.128 137.513 127.053 143.216 125.418 154.028C124.124 162.914 122.888 170.302 122.692 170.439C121.793 171.068 119.077 165.106 113.296 150.107C107.726 135.659 107.644 135.541 105.064 137.347C104.361 137.84 101.64 141.025 99.0556 144.407C92.5387 152.987 87.394 159.034 87.0656 158.565C86.6552 157.978 87.7619 151.321 89.6778 142.991C91.6797 134.368 91.7189 133.175 90.3664 132.491C88.8536 131.745 86.3244 132.292 72.5212 136.536C53.7221 142.297 45.0985 144.372 44.305 143.239C43.7851 142.496 47.0455 139.748 63.0226 127.459C70.0358 122.084 74.856 118.07 75.2899 117.358C77.0492 114.38 74.3247 111.569 65.2324 106.983C55.4835 102.041 50.8592 99.5119 50.9295 99.1132C50.9726 98.6754 53.4001 98.8983 63.0555 100.294C71.4482 101.468 73.7897 101.401 74.5247 99.955C76.1706 96.648 73.4895 87.5749 63.7104 63.2012C59.8253 53.5729 58.5903 49.8943 59.0985 49.5386C59.5285 49.2377 59.6106 49.3549 74.304 63.3581C88.7278 77.1424 91.1864 79.3238 93.7859 80.7078C97.6714 82.7642 99.2273 81.3257 107.019 68.2425C112.985 58.1261 115.33 54.737 116.437 54.4869C117.66 54.1547 118.371 58.0834 119.242 70.229C119.988 80.9477 120.368 83.0704 121.411 82.9805C121.65 82.9884 122.69 82.1441 123.726 81.1278C127.314 77.6841 153.784 55.2552 155.469 54.2507C156.345 53.7543 156.262 54.2195 154.726 58.2653Z" fill="black"/>
</g>
<g filter="url(#filter2_d_1_922)">
<path d="M128.819 93.813C123.378 89.1179 113.985 85.8494 106.577 86.0835C102.848 86.2475 97.2969 87.803 93.5832 89.8198C83.1065 95.4053 81.2332 109.705 89.7037 119.56C98.3226 129.544 114.873 133.802 124.936 128.623C133.008 124.429 137.86 115.384 136.527 106.823C136.062 103.829 135.672 102.937 133.463 99.5323C131.845 97.0539 130.156 94.9741 128.819 93.813ZM133.334 107.253C133.861 110.669 132.954 115.614 131.136 118.925C129.748 121.353 129.244 121.88 125.53 124.48C121.777 127.106 121.148 127.372 118.286 127.861C114.659 128.419 107.951 127.407 103.342 125.565C87.1784 119.114 81.9647 101.679 93.6924 93.4709C98.7744 89.914 107.292 87.8544 112.742 88.8163C115.627 89.3598 122.925 93.0465 125.891 95.4547C129.062 98.0701 132.837 104.047 133.334 107.253Z" fill="black"/>
</g>
<path d="M119.533 108.175C118.74 107.623 117.102 108.944 117.219 110.027C117.45 112.021 120.217 112.064 120.569 110.07C120.722 109.207 120.46 108.749 119.533 108.175Z" fill="black"/>
<path d="M105.059 99.7263C103.663 100.062 103.092 101.161 103.714 102.298C104.406 103.62 106.161 103.381 106.552 101.943C106.857 100.797 105.954 99.5074 105.059 99.7263Z" fill="black"/>
<path d="M107.615 116.109C105.16 118.177 104.558 118.482 103.339 118.403C102.119 118.325 101.849 118.106 101.56 117.027C101.294 115.816 101.767 113.329 102.663 111.363C103.003 110.601 102.921 110.484 102.178 110.421C100.865 110.292 99.1287 113.72 99.2615 116.073C99.4684 119.947 102.514 121.718 106.063 120.049C107.752 119.217 110.352 116.524 110.758 115.191C111.212 113.592 110.344 113.85 107.615 116.109Z" fill="black"/>
</g>
<defs>
<filter id="filter0_d_1_922" x="0" y="0.121704" width="204.634" height="219.191" filterUnits="userSpaceOnUse" color-interpolation-filters="sRGB">
<feFlood flood-opacity="0" result="BackgroundImageFix"/>
<feColorMatrix in="SourceAlpha" type="matrix" values="0 0 0 0 0 0 0 0 0 0 0 0 0 0 0 0 0 0 127 0" result="hardAlpha"/>
<feOffset dy="16"/>
<feComposite in2="hardAlpha" operator="out"/>
<feColorMatrix type="matrix" values="0 0 0 0 0 0 0 0 0 0 0 0 0 0 0 0 0 0 0.25 0"/>
<feBlend mode="normal" in2="BackgroundImageFix" result="effect1_dropShadow_1_922"/>
<feBlend mode="normal" in="SourceGraphic" in2="effect1_dropShadow_1_922" result="shape"/>
</filter>
<filter id="filter1_d_1_922" x="40.9432" y="45.6517" width="142.63" height="132.721" filterUnits="userSpaceOnUse" color-interpolation-filters="sRGB">
<feFlood flood-opacity="0" result="BackgroundImageFix"/>
<feColorMatrix in="SourceAlpha" type="matrix" values="0 0 0 0 0 0 0 0 0 0 0 0 0 0 0 0 0 0 127 0" result="hardAlpha"/>
<feOffset dy="4"/>
<feComposite in2="hardAlpha" operator="out"/>
<feColorMatrix type="matrix" values="0 0 0 0 0 0 0 0 0 0 0 0 0 0 0 0 0 0 0.25 0"/>
<feBlend mode="normal" in2="BackgroundImageFix" result="effect1_dropShadow_1_922"/>
<feBlend mode="normal" in="SourceGraphic" in2="effect1_dropShadow_1_922" result="shape"/>
</filter>
<filter id="filter2_d_1_922" x="84.3752" y="86.0717" width="52.3713" height="48.7668" filterUnits="userSpaceOnUse" color-interpolation-filters="sRGB">
<feFlood flood-opacity="0" result="BackgroundImageFix"/>
<feColorMatrix in="SourceAlpha" type="matrix" values="0 0 0 0 0 0 0 0 0 0 0 0 0 0 0 0 0 0 127 0" result="hardAlpha"/>
<feOffset dy="4"/>
<feComposite in2="hardAlpha" operator="out"/>
<feColorMatrix type="matrix" values="0 0 0 0 0 0 0 0 0 0 0 0 0 0 0 0 0 0 0.25 0"/>
<feBlend mode="normal" in2="BackgroundImageFix" result="effect1_dropShadow_1_922"/>
<feBlend mode="normal" in="SourceGraphic" in2="effect1_dropShadow_1_922" result="shape"/>
</filter>
</defs>
</svg>
