<svg width="161" height="173" viewBox="0 0 161 173" fill="none" xmlns="http://www.w3.org/2000/svg">
<g filter="url(#filter0_d_1_1120)">
<rect width="112.826" height="117.442" transform="translate(96.2168) rotate(55.0113)" fill="#BAE6FF"/>
<g filter="url(#filter1_d_1_1120)">
<path d="M122.612 40.068C120.988 40.5628 121.019 40.5413 107.315 52.6977C101.763 57.591 97.0664 61.6114 96.9096 61.5837C96.7528 61.556 96.378 58.3376 96.1231 54.4399C95.601 47.0196 94.8666 42.6331 93.9936 41.3205C92.9609 39.845 91.6883 39.7281 89.9976 40.9115C88.2147 42.1594 87.0957 43.7669 81.802 52.6932C77.4613 60.0364 76.3392 61.5087 75.2726 61.2935C73.8924 61.0229 71.5349 58.9633 59.9593 47.9213C53.6613 41.933 47.8796 36.6825 47.0897 36.2736C44.5169 34.8226 43.1366 36.842 44.1293 40.6814C44.4243 41.7572 46.4374 46.9891 48.598 52.3009C54.6035 66.9667 57.6277 76.3914 56.5518 77.1444C56.3059 77.3165 54.231 77.1658 51.8918 76.8337C43.4848 75.619 37.9672 75.1299 36.9867 75.4957C36.2335 75.7938 35.9907 76.1012 35.9261 76.925C35.8523 77.801 36.0244 78.0469 37.2016 79.0091C37.9639 79.5748 42.4547 82.0649 47.173 84.4874C51.8912 86.9098 56.0654 89.2093 56.4588 89.5752C57.6484 90.6203 57.4147 91.3335 55.5334 92.8334C54.5928 93.5834 49.7235 97.3578 44.7006 101.24C32.9579 110.375 31.3102 112.078 32.5366 113.83C33.9566 115.859 38.1986 115.179 55.0714 110.102C62.2674 107.951 68.4737 106.218 68.8395 106.282C69.3928 106.353 69.4235 106.79 69.0145 108.496C67.9384 112.913 65.9613 124.418 66.0903 125.519C66.4191 128.082 68.0113 128.525 70.0709 126.625C70.6919 126.008 73.9135 122.104 77.2735 117.874C80.6028 113.667 83.3971 110.199 83.5016 110.218C83.6061 110.236 84.4575 112.434 85.3703 115.047C87.6046 121.315 91.7907 131.025 93.727 134.25C95.1132 136.623 95.3376 136.878 96.2874 136.992C98.4791 137.244 98.7466 136.187 101.041 119.834C101.874 113.892 102.772 108.959 102.999 108.891C103.227 108.823 105.569 109.749 108.157 110.96C114.658 113.967 118.885 115.359 120.637 115.049C122.026 114.809 122.088 114.766 122.272 113.721C122.561 112.236 120.271 108.114 116.592 103.316C115.016 101.259 113.725 99.4148 113.783 99.2366C113.789 99.0491 116.648 99.3382 120.075 99.9162C130.031 101.512 139.056 102.432 141.869 102.066C144.07 101.808 144.964 100.403 143.91 98.8971C143.458 98.2515 136.186 94.2735 125.812 88.9398C121.662 86.8063 118.269 84.9679 118.244 84.8019C118.219 84.6359 121.426 82.346 125.333 79.7489C133.433 74.3086 134.675 73.0729 133.839 71.5513C133.23 70.4201 132.741 70.4416 123.409 71.5692C115.365 72.5738 112.383 72.8288 112.146 72.4907C112.06 72.3677 112.552 71.1074 113.247 69.6136C113.932 68.172 115.482 64.8892 116.715 62.3318C120.53 54.303 124.105 45.8009 124.637 43.5508C125.058 41.9279 125.031 41.1686 124.579 40.5231C124.062 39.7853 123.749 39.73 122.612 40.068ZM121.668 45.7208C120.103 49.7014 115.205 60.5027 112.408 66.1247C110.047 70.7999 109.327 73.0438 109.951 73.9353C110.683 74.9804 114.316 75.0022 121.798 73.979C125.96 73.4474 129.759 72.9866 130.239 73.0173C130.989 73.042 131.001 73.125 130.061 73.8749C129.498 74.3145 125.923 76.8625 122.133 79.5612L115.216 84.4021L115.705 85.2966C116.074 85.9545 119.618 88.008 128.52 92.6778C135.303 96.2192 140.962 99.2658 141.091 99.4502C141.22 99.6347 141.236 99.8529 141.113 99.939C140.529 100.348 126.481 98.7301 119.239 97.4786C114.85 96.7037 111.112 96.2056 110.866 96.3777C109.821 97.1092 110.181 97.8193 115.344 105.197C118.163 109.224 120.385 112.661 120.296 112.86C119.951 113.743 115.304 112.141 108.105 108.661C103.789 106.552 102.274 106.284 101.22 107.526C100.752 108.036 99.9068 112.521 98.6214 121.023C97.6035 128.01 96.6319 133.82 96.4782 133.927C95.7711 134.422 93.6351 129.734 89.0895 117.94C84.7099 106.578 84.6453 106.486 82.6165 107.906C82.0632 108.293 79.9236 110.799 77.8916 113.457C72.7671 120.204 68.7216 124.959 68.4634 124.59C68.1407 124.129 69.0109 118.894 70.5174 112.344C72.0917 105.563 72.1225 104.626 71.0589 104.088C69.8694 103.501 67.8805 103.931 57.0265 107.268C42.244 111.798 35.4629 113.43 34.839 112.539C34.4302 111.955 36.9939 109.794 49.5574 100.13C55.0722 95.9042 58.8624 92.7475 59.2037 92.1881C60.587 89.8459 58.4447 87.6356 51.2951 84.0296C43.629 80.1438 39.9927 78.1548 40.0481 77.8412C40.0819 77.4969 41.9908 77.6723 49.5832 78.7701C56.1828 79.6926 58.024 79.6405 58.602 78.5032C59.8962 75.9027 57.788 68.7682 50.0982 49.6021C47.0432 42.031 46.072 39.1384 46.4717 38.8587C46.8098 38.622 46.8743 38.7142 58.4284 49.7255C69.7704 60.5647 71.7038 62.28 73.7478 63.3683C76.8032 64.9853 78.0266 63.8542 84.1535 53.5663C88.8447 45.6114 90.6891 42.9464 91.5591 42.7497C92.5212 42.4885 93.0805 45.5778 93.7654 55.1284C94.352 63.557 94.6501 65.2261 95.4708 65.1554C95.6583 65.1616 96.476 64.4977 97.2906 63.6985C100.113 60.9906 120.927 43.3539 122.252 42.564C122.94 42.1737 122.876 42.5394 121.668 45.7208Z" fill="black"/>
</g>
<g filter="url(#filter2_d_1_1120)">
<path d="M101.296 73.6734C97.0175 69.9814 89.6312 67.4112 83.8062 67.5953C80.8737 67.7243 76.5087 68.9474 73.5884 70.5334C65.3502 74.9255 63.8772 86.1696 70.5378 93.9192C77.3152 101.77 90.3298 105.119 98.2422 101.046C104.59 97.7482 108.405 90.6354 107.357 83.9036C106.992 81.549 106.684 80.8481 104.948 78.1707C103.675 76.2218 102.347 74.5864 101.296 73.6734ZM104.846 84.2416C105.261 86.9282 104.547 90.8166 103.118 93.4201C102.027 95.3289 101.63 95.7438 98.7097 97.7878C95.7586 99.8533 95.2637 100.062 93.0136 100.446C90.161 100.886 84.8863 100.089 81.2623 98.6413C68.5521 93.5687 64.4523 79.859 73.6743 73.4044C77.6705 70.6074 84.3686 68.9878 88.6535 69.7442C90.922 70.1716 96.6608 73.0706 98.9938 74.9643C101.487 77.0208 104.456 81.721 104.846 84.2416Z" fill="black"/>
</g>
<path d="M93.995 84.9665C93.371 84.533 92.083 85.5719 92.1752 86.4234C92.3564 87.9911 94.5327 88.025 94.8095 86.4574C94.9294 85.7781 94.7235 85.4184 93.995 84.9665Z" fill="black"/>
<path d="M82.6126 78.3233C81.5152 78.5876 81.0663 79.4513 81.555 80.3458C82.099 81.3848 83.4792 81.1974 83.7867 80.0662C84.0265 79.1656 83.3165 78.1512 82.6126 78.3233Z" fill="black"/>
<path d="M84.6217 91.2058C82.6912 92.8317 82.2178 93.0715 81.2587 93.0099C80.2997 92.9484 80.0876 92.7763 79.8602 91.9279C79.6512 90.9749 80.0233 89.02 80.7273 87.4739C80.9947 86.8745 80.9302 86.7822 80.3462 86.733C79.3134 86.6315 77.9484 89.3272 78.0528 91.1777C78.2155 94.2239 80.61 95.6165 83.4012 94.3042C84.7291 93.6495 86.7734 91.5317 87.0931 90.4835C87.4498 89.2264 86.7673 89.4292 84.6217 91.2058Z" fill="black"/>
</g>
<defs>
<filter id="filter0_d_1_1120" x="0.000488281" y="0" width="160.912" height="172.359" filterUnits="userSpaceOnUse" color-interpolation-filters="sRGB">
<feFlood flood-opacity="0" result="BackgroundImageFix"/>
<feColorMatrix in="SourceAlpha" type="matrix" values="0 0 0 0 0 0 0 0 0 0 0 0 0 0 0 0 0 0 127 0" result="hardAlpha"/>
<feOffset dy="12.5815"/>
<feComposite in2="hardAlpha" operator="out"/>
<feColorMatrix type="matrix" values="0 0 0 0 0 0 0 0 0 0 0 0 0 0 0 0 0 0 0.25 0"/>
<feBlend mode="normal" in2="BackgroundImageFix" result="effect1_dropShadow_1_1120"/>
<feBlend mode="normal" in="SourceGraphic" in2="effect1_dropShadow_1_1120" result="shape"/>
</filter>
<filter id="filter1_d_1_1120" x="32.1956" y="35.8022" width="112.156" height="104.364" filterUnits="userSpaceOnUse" color-interpolation-filters="sRGB">
<feFlood flood-opacity="0" result="BackgroundImageFix"/>
<feColorMatrix in="SourceAlpha" type="matrix" values="0 0 0 0 0 0 0 0 0 0 0 0 0 0 0 0 0 0 127 0" result="hardAlpha"/>
<feOffset dy="3.14537"/>
<feComposite in2="hardAlpha" operator="out"/>
<feColorMatrix type="matrix" values="0 0 0 0 0 0 0 0 0 0 0 0 0 0 0 0 0 0 0.25 0"/>
<feBlend mode="normal" in2="BackgroundImageFix" result="effect1_dropShadow_1_1120"/>
<feBlend mode="normal" in="SourceGraphic" in2="effect1_dropShadow_1_1120" result="shape"/>
</filter>
<filter id="filter2_d_1_1120" x="66.3479" y="67.5861" width="41.1816" height="38.3473" filterUnits="userSpaceOnUse" color-interpolation-filters="sRGB">
<feFlood flood-opacity="0" result="BackgroundImageFix"/>
<feColorMatrix in="SourceAlpha" type="matrix" values="0 0 0 0 0 0 0 0 0 0 0 0 0 0 0 0 0 0 127 0" result="hardAlpha"/>
<feOffset dy="3.14537"/>
<feComposite in2="hardAlpha" operator="out"/>
<feColorMatrix type="matrix" values="0 0 0 0 0 0 0 0 0 0 0 0 0 0 0 0 0 0 0.25 0"/>
<feBlend mode="normal" in2="BackgroundImageFix" result="effect1_dropShadow_1_1120"/>
<feBlend mode="normal" in="SourceGraphic" in2="effect1_dropShadow_1_1120" result="shape"/>
</filter>
</defs>
</svg>
