<svg width="151" height="136" viewBox="0 0 151 136" fill="none" xmlns="http://www.w3.org/2000/svg">
<g filter="url(#filter0_d_1_965)">
<path d="M64.5679 22.5902V45.1804L52.7817 39.2873C46.2993 36.1443 40.2098 33.3942 39.0311 33.3942C34.5131 33.3942 37.6561 39.4837 46.1029 46.9483C52.1924 52.2521 54.3532 55.1987 52.5853 55.788C51.0138 56.3773 39.424 59.5203 26.4592 62.6633C2.29751 68.5564 -2.61341 71.11 1.11889 74.8423C2.49394 76.2174 11.9229 75.6281 32.9416 72.4851C49.4423 70.1279 63.3893 68.7528 63.9786 69.3421C64.5679 70.1279 61.2285 77.0031 56.7104 84.8606C51.996 92.7181 48.0672 99.7898 47.6744 100.379C47.2815 101.165 48.2637 102.736 49.6387 103.915C51.996 105.879 53.9603 104.897 60.2463 99.3969C64.5679 95.4682 68.8895 92.3252 69.8717 92.3252C70.8539 92.3252 72.8182 98.2183 74.3897 105.486C77.7292 122.38 80.0864 127.684 84.408 127.684C89.7118 127.684 90.694 121.594 89.1225 99.004C88.3367 87.6107 88.3367 78.5746 89.3189 78.5746C90.3011 78.5746 98.1586 81.7176 106.802 85.4499C123.892 92.9145 129.392 93.8967 129.392 89.5751C129.392 85.6463 126.249 82.8962 111.123 72.4851C103.855 67.7706 97.9621 63.2526 97.9621 62.6633C97.9621 62.074 107.98 58.7345 120.159 55.1987C141.964 48.9127 151 44.7875 151 41.2517C151 38.3051 138.624 38.8944 118.981 42.4303C109.552 44.1982 101.105 45.1804 100.516 44.3947C99.9265 43.8054 101.302 38.698 103.659 33.1978C112.498 11.7862 106.998 9.82182 93.2476 29.6619C88.1403 37.3229 83.0329 42.8232 82.2472 41.841C81.4614 41.0552 79.3007 33.1978 77.3363 24.5546C73.4075 6.08952 70.8539 -1.52588e-05 67.1216 -1.52588e-05C65.1572 -1.52588e-05 64.5679 5.10734 64.5679 22.5902Z" fill="#FF6258"/>
<path d="M66.0679 45.1804V47.6075L63.8971 46.522L52.1273 40.637C52.1245 40.6357 52.1218 40.6343 52.119 40.633C48.8886 39.0668 45.7695 37.6051 43.3184 36.5373C42.0897 36.002 41.0466 35.5735 40.2494 35.2815C39.8497 35.1351 39.5308 35.03 39.292 34.9635C39.09 34.9072 39.0058 34.8962 39.0027 34.8943C38.7128 34.8967 38.5482 34.9351 38.4684 34.9624C38.4577 35.146 38.513 35.6742 39.036 36.68C40.1846 38.8888 42.9162 42.1299 47.0924 45.821C50.1429 48.4782 52.3144 50.632 53.5002 52.249C54.0639 53.0177 54.5699 53.8791 54.6654 54.7384C54.7187 55.2179 54.6521 55.7786 54.3122 56.2885C53.9851 56.7791 53.5177 57.0532 53.0881 57.2014C52.1778 57.5372 48.8128 58.4871 44.1798 59.7177C39.4554 60.9726 33.3066 62.5467 26.8136 64.1208C14.6935 67.0769 7.59406 69.1543 3.98557 70.9117C3.09823 71.3438 2.48405 71.728 2.0778 72.0616C1.66714 72.3989 1.547 72.6205 1.51481 72.7086C1.49889 72.7521 1.48394 72.7975 1.53752 72.9312C1.60473 73.0989 1.76967 73.3619 2.12461 73.726C2.15966 73.7413 2.2405 73.7734 2.38826 73.8109C2.69377 73.8885 3.15529 73.9576 3.81032 73.9991C5.11648 74.0818 7.00296 74.0442 9.55701 73.8618C14.6538 73.4977 22.2192 72.5718 32.7198 71.0016L32.7198 71.0016L32.7295 71.0002C40.9954 69.8193 48.6286 68.8835 54.277 68.3162C57.0981 68.0328 59.4408 67.8397 61.1255 67.755C61.9633 67.7129 62.6678 67.6959 63.1978 67.712C63.4583 67.7198 63.7178 67.7366 63.9466 67.7725C64.0595 67.7902 64.2044 67.8185 64.3555 67.8684C64.4699 67.9063 64.7706 68.0128 65.0393 68.2814L65.1146 68.3568L65.1786 68.4421C65.4629 68.8212 65.5238 69.2262 65.5399 69.4528C65.5578 69.7032 65.5342 69.9439 65.5026 70.1449C65.4391 70.5493 65.3076 71.0077 65.1459 71.4796C64.8181 72.4363 64.287 73.6738 63.6154 75.0916C62.2665 77.9393 60.2812 81.6597 58.0108 85.6083L58.0039 85.6204L57.9967 85.6323C55.6465 89.5493 53.4911 93.2722 51.8728 96.092C51.3788 96.9528 50.9288 97.7402 50.5363 98.427C49.8856 99.5658 49.393 100.428 49.1198 100.889C49.1501 100.974 49.2035 101.095 49.2928 101.25C49.559 101.711 50.0251 102.269 50.6068 102.769C51.0707 103.154 51.3897 103.289 51.6436 103.33C51.8922 103.37 52.2583 103.348 52.868 103.081C54.1864 102.504 56.0704 101.057 59.248 98.2773C61.438 96.287 63.6354 94.4883 65.425 93.1776C66.3185 92.5232 67.1323 91.9743 67.8057 91.5818C68.1408 91.3864 68.467 91.2146 68.7674 91.0871C69.0211 90.9794 69.4304 90.8252 69.8717 90.8252C70.7048 90.8252 71.2322 91.3954 71.4207 91.6146C71.6803 91.9165 71.9057 92.291 72.1014 92.6667C72.5001 93.4323 72.9154 94.4792 73.3298 95.6971C74.1642 98.1499 75.0623 101.499 75.8559 105.169L75.8587 105.182L75.8613 105.196C77.5332 113.654 78.931 119.044 80.3984 122.305C81.1284 123.927 81.8223 124.897 82.4698 125.456C83.0714 125.976 83.6786 126.184 84.408 126.184C85.4116 126.184 86.0134 125.915 86.4773 125.388C87.0138 124.779 87.5237 123.645 87.8632 121.573C88.5422 117.428 88.4141 110.435 87.6261 99.1081L87.626 99.1072C87.2317 93.3899 87.0329 88.2417 87.0578 84.5068C87.0701 82.6482 87.138 81.094 87.2745 79.9818C87.3411 79.4394 87.4334 78.9178 87.5775 78.4981C87.6469 78.2961 87.7619 78.0149 87.9632 77.7567C88.1659 77.4966 88.6126 77.0746 89.3189 77.0746C89.6855 77.0746 90.115 77.1903 90.4104 77.2749C90.7757 77.3794 91.2274 77.5273 91.7445 77.708C92.7819 78.0707 94.1475 78.5885 95.7389 79.2177C98.9254 80.4775 103.066 82.2027 107.396 84.0728L107.402 84.0753C115.971 87.8181 121.462 89.8543 124.774 90.4565C126.472 90.7652 127.267 90.6287 127.584 90.467L127.588 90.4649C127.694 90.4112 127.892 90.3106 127.892 89.5751C127.892 88.8238 127.749 88.1655 127.348 87.43C126.926 86.6577 126.191 85.7476 124.91 84.5613C122.332 82.1718 117.868 78.9487 110.29 73.7323C106.637 71.3625 103.325 69.039 100.915 67.2258C99.7116 66.3199 98.7159 65.5284 98.0113 64.9147C97.663 64.6113 97.3582 64.3276 97.1295 64.0809C97.0178 63.9604 96.8929 63.8154 96.7866 63.6577C96.7332 63.5786 96.6646 63.4673 96.6052 63.3315C96.5522 63.2104 96.4621 62.9717 96.4621 62.6633C96.4621 62.1326 96.7272 61.7767 96.8286 61.6523C96.9544 61.4979 97.0879 61.3889 97.1733 61.3244C97.3496 61.1912 97.5501 61.078 97.7251 60.9872C98.0895 60.7979 98.5831 60.5835 99.1613 60.3526C100.33 59.8857 101.994 59.292 104.017 58.6138C108.069 57.2548 113.639 55.5298 119.741 53.7581L119.744 53.7574C130.637 50.6171 138.258 48.0389 143.137 45.8276C145.584 44.7186 147.255 43.7397 148.292 42.8826C149.087 42.2247 149.368 41.7586 149.459 41.4772C149.28 41.3862 148.964 41.2697 148.455 41.1644C147.171 40.8984 145.158 40.7997 142.416 40.9089C136.971 41.1257 129.047 42.1426 119.253 43.9055C114.515 44.7937 110.008 45.4876 106.597 45.8612C104.896 46.0474 103.433 46.1579 102.337 46.1678C101.796 46.1726 101.292 46.1538 100.874 46.0925C100.667 46.0621 100.429 46.0142 100.199 45.9292C100.018 45.8627 99.6692 45.7131 99.3846 45.3805C99.1604 45.1282 99.0506 44.8572 98.9935 44.6704C98.9278 44.4551 98.9004 44.2463 98.8885 44.0727C98.8648 43.7269 98.8917 43.3486 98.9389 42.9796C99.0347 42.2308 99.2457 41.2878 99.5368 40.2372C100.122 38.1258 101.078 35.4136 102.276 32.6162C104.468 27.305 105.734 23.2865 106.218 20.5599C106.463 19.1818 106.487 18.2463 106.394 17.6797C106.376 17.5651 106.355 17.48 106.337 17.4181C106.21 17.4513 105.991 17.53 105.657 17.7198C104.98 18.1057 104.083 18.8097 102.97 19.9032C100.757 22.0783 97.8985 25.5855 94.4882 30.5053C91.9063 34.377 89.3099 37.7262 87.2356 40.0029C86.2071 41.1317 85.259 42.0503 84.474 42.6337C84.0969 42.9139 83.6536 43.1964 83.1898 43.3436C82.7702 43.4768 81.8114 43.6317 81.1251 42.8372C80.8421 42.5264 80.6463 42.1161 80.5233 41.8427C80.3601 41.4801 80.1874 41.0298 80.0088 40.5195C79.6502 39.4947 79.2354 38.1348 78.7897 36.5504C77.897 33.3762 76.8596 29.2253 75.8736 24.887L75.8713 24.8769L75.8691 24.8667C73.9037 15.6294 72.3068 9.61665 70.7707 5.92981C70.0015 4.08386 69.2957 2.94296 68.658 2.27919C68.159 1.75976 67.7365 1.56353 67.3447 1.51373C67.3227 1.5547 67.2965 1.60794 67.2664 1.67622C67.0313 2.20958 66.7919 3.20444 66.5985 4.90815C66.2167 8.27303 66.0679 13.8376 66.0679 22.5902V45.1804ZM49.0857 100.763C49.0856 100.763 49.0858 100.765 49.0864 100.769C49.0861 100.765 49.0858 100.763 49.0857 100.763ZM106.273 17.2706C106.273 17.2717 106.277 17.2796 106.288 17.2913C106.279 17.2753 106.274 17.2695 106.273 17.2706ZM67.4233 1.39145C67.4233 1.39083 67.4192 1.39468 67.4115 1.40479C67.4196 1.39714 67.4234 1.39207 67.4233 1.39145Z" stroke="black" stroke-width="3"/>
</g>
<defs>
<filter id="filter0_d_1_965" x="0" y="0" width="151" height="135.448" filterUnits="userSpaceOnUse" color-interpolation-filters="sRGB">
<feFlood flood-opacity="0" result="BackgroundImageFix"/>
<feColorMatrix in="SourceAlpha" type="matrix" values="0 0 0 0 0 0 0 0 0 0 0 0 0 0 0 0 0 0 127 0" result="hardAlpha"/>
<feOffset dy="7.76457"/>
<feComposite in2="hardAlpha" operator="out"/>
<feColorMatrix type="matrix" values="0 0 0 0 0.745098 0 0 0 0 0.74902 0 0 0 0 0.705882 0 0 0 1 0"/>
<feBlend mode="normal" in2="BackgroundImageFix" result="effect1_dropShadow_1_965"/>
<feBlend mode="normal" in="SourceGraphic" in2="effect1_dropShadow_1_965" result="shape"/>
</filter>
</defs>
</svg>
